<?xml version="1.0" encoding="UTF-8" standalone="no"?>
<svg
   xmlns:dc="http://purl.org/dc/elements/1.1/"
   xmlns:cc="http://creativecommons.org/ns#"
   xmlns:rdf="http://www.w3.org/1999/02/22-rdf-syntax-ns#"
   xmlns:svg="http://www.w3.org/2000/svg"
   xmlns="http://www.w3.org/2000/svg"
   viewBox="0 0 2497.3333 1180"
   height="1180"
   width="2497.3333"
   xml:space="preserve"
   id="svg2"
   version="1.1"><metadata
     id="metadata8"><rdf:RDF><cc:Work
         rdf:about=""><dc:format>image/svg+xml</dc:format><dc:type
           rdf:resource="http://purl.org/dc/dcmitype/StillImage" /></cc:Work></rdf:RDF></metadata><defs
     id="defs6"><clipPath
       id="clipPath18"
       clipPathUnits="userSpaceOnUse"><path
         id="path16"
         d="M 0,885 H 1873 V 0 H 0 Z" /></clipPath></defs><g
     transform="matrix(1.3333333,0,0,-1.3333333,0,1180)"
     id="g10"><g
       id="g12"><g
         clip-path="url(#clipPath18)"
         id="g14"><g
           transform="translate(760,202)"
           id="g20"><path
             id="path22"
             style="fill:#fefefe;fill-opacity:1;fill-rule:nonzero;stroke:none"
             d="M 0,0 H -29 L 5.979,-90.594 c 0.284,-6.747 -4.529,-15.267 -11.544,-16.342 -2.284,-0.35 -10.644,0.686 -11.55,-0.646 l -4.765,-19.841 c 11.966,-6.844 31.223,-2.752 40.924,6.879 21.338,21.183 30.961,88.208 45.504,116.497 L 65,0 H 38.5 L 20.99,-65 Z M -36,0 C -47.115,0.483 -58.431,-0.638 -69.536,-0.036 -81.3,0.602 -86.621,3.784 -99.78,0.28 c -23.293,-6.203 -33.854,-32.446 -18.198,-51.753 1.261,-1.555 4.926,-3.762 5.016,-4.073 0.848,-2.948 -1.738,-2.372 -3.03,-3.921 -5.891,-7.061 -8.986,-13.374 -5.49,-22.514 1.649,-4.313 4.501,-5.762 6.482,-9.486 -9.474,-5.775 -15.729,-14.921 -11.218,-26.251 11.118,-27.924 99.958,-20.382 90.776,23.775 -5.308,25.524 -43.216,14.368 -59.809,19.192 -6.025,1.752 -6.174,8.393 -1.144,11.523 15.496,-3.82 37.97,-0.089 45.128,15.995 3.908,8.78 4.116,17.458 0.267,26.233 h 15 z m -136,0 h -24 v -94 h 29 v 54.5 c 0,2.818 8.383,12.189 11.301,13.699 5.788,2.998 12.349,1.322 18.565,1.932 l 5.203,24.284 c -14.959,5.708 -30.879,-2.249 -37.082,-16.413 -2.103,-1.433 -3.17,14.344 -2.987,15.998 m -44,-56 c 4.836,26.384 -4.799,56.297 -35.454,58.045 -34.335,1.958 -53.243,-29.774 -47.273,-61.272 6.419,-33.865 41.185,-44.813 70.708,-32.254 3.178,1.353 6.315,3.107 9.087,5.146 0.283,1.341 -7.104,16.286 -8.065,16.895 -1.931,1.225 -12.677,-4.011 -16.609,-4.451 C -257.1,-75.399 -268.542,-69.975 -271,-56 Z m -101,-38 v 65.5 c 0,0.647 -1.16,6.284 -1.446,7.554 C -325.44,10.16 -358.403,6.666 -376.99,-12 L -379,0 h -24 v -94 h 29 v 62.5 c 5.581,7.37 22.403,14.146 26.229,2.229 0.967,-3.014 1.615,-10.672 1.812,-14.188 C -345.03,-59.981 -346.734,-77.39 -346,-94 Z m -105,38 c 2.873,21.136 -1.736,47.133 -24.011,55.489 -27.565,10.339 -56.704,-9.452 -59.884,-38.094 -4.127,-37.177 20.232,-63.626 57.95,-56.95 3.847,0.681 22.248,6.54 22.866,10.183 -2.442,2.948 -6.251,14.519 -8.931,15.927 -2.436,1.279 -6.328,-2.059 -9.19,-2.855 -14.498,-4.032 -32.087,-1.194 -33.8,16.3 z M 840,452 H 676.5 c -42.769,0 -91.107,-51.813 -91.541,-94.459 6.051,-71.792 -23.962,-161.948 52.022,-205.06 C 645.568,147.609 667.014,139 676.5,139 H 886 v 82 h -28.5 c -5.78,0 -17.5,11.73 -17.5,17.5 z m -485,0 h -82 l -0.041,-140.541 c 3.709,-57.877 32.299,-108.132 75.023,-145.959 -24.27,-27.469 -62.837,-50.985 -66.018,-90.964 -1.991,-25.022 6.9,-48.896 25.673,-65.464 l 2.391,1.395 c 40.633,41.358 82.377,81.641 122.998,123.007 51.732,52.679 100.881,93.706 105.964,174.036 L 539,452 h -82 l 0.041,-137.541 c -2.413,-36.923 -23.34,-67.825 -51.404,-90.387 -28.261,24.984 -48.352,54.521 -50.679,93.386 z m -128,0 H 146.5 C 102.178,452 54.11,399.566 53.959,355.541 L 54,139 h 82 v 213.5 c 0,5.78 11.73,17.5 17.5,17.5 H 227 Z m -279,0 h -82 l -0.042,-213.542 C -135.141,193.682 -86.702,139 -41.5,139 H -6 v 82 h -27.5 c -7.389,0 -18.5,12.33 -18.5,19.5 z m -364,0 h -82 l -0.042,-159.542 c 2.648,-34.239 16.471,-66.203 39.528,-91.472 l 93.151,-92.914 2.391,1.395 c 49.028,56.5 125.905,99.505 131.014,181.991 1.142,18.446 -2.502,42.351 0.198,59.802 1.169,7.557 10.327,18.74 18.26,18.74 h 27.5 v 82 h -35.5 c -26.725,0 -61.135,-25.024 -75.309,-46.691 -25.182,-38.494 -13.526,-68.488 -17.207,-109.793 -2.885,-32.373 -30.006,-49.222 -49.992,-71.076 l -2.522,0.5 c -14.865,16.81 -36.595,31.551 -44.952,53.078 -1.327,3.419 -4.518,13.337 -4.518,16.482 z m 385,94 H -155 V 505 H -31 Z M 1120,-202 H -753 v 885 h 1873 z" /></g><g
           transform="translate(1518,572)"
           id="g24"><path
             id="path26"
             style="fill:#175649;fill-opacity:1;fill-rule:nonzero;stroke:none"
             d="m 0,0 h -73.5 c -6.064,0 -17.417,-10.828 -17.411,-17.589 1.882,-36.093 -2.807,-75.217 -0.131,-110.953 0.495,-6.609 3.146,-12.484 8.712,-16.288 1.043,-0.713 8.226,-4.17 8.83,-4.17 H 0 Z m 82,82 v -213.5 c 0,-5.77 11.72,-17.5 17.5,-17.5 H 128 v -82 H -81.5 c -9.486,0 -30.932,8.609 -39.519,13.481 -75.984,43.112 -45.971,133.268 -52.022,205.06 C -172.607,30.187 -124.269,82 -81.5,82 Z" /></g><g
           transform="translate(1115,654)"
           id="g28"><path
             id="path30"
             style="fill:#185649;fill-opacity:1;fill-rule:nonzero;stroke:none"
             d="m 0,0 -0.042,-134.542 c 2.327,-38.865 22.418,-68.402 50.679,-93.386 28.064,22.562 48.991,53.464 51.404,90.387 L 102,0 h 82 l -0.01,-144.49 C 178.907,-224.82 129.758,-265.847 78.026,-318.526 37.405,-359.892 -4.339,-400.174 -44.972,-441.533 l -2.391,-1.395 c -18.773,16.568 -27.664,40.442 -25.673,65.464 3.181,39.979 41.748,63.495 66.018,90.964 -42.724,37.827 -71.314,88.082 -75.023,145.959 L -82,0 Z" /></g><g
           transform="translate(344,654)"
           id="g32"><path
             id="path34"
             style="fill:#175649;fill-opacity:1;fill-rule:nonzero;stroke:none"
             d="m 0,0 v -157.5 c 0,-3.145 3.191,-13.063 4.518,-16.482 8.357,-21.527 30.087,-36.268 44.952,-53.078 l 2.522,-0.5 c 19.986,21.854 47.107,38.703 49.992,71.076 3.681,41.305 -7.975,71.299 17.207,109.793 C 133.365,-25.024 167.775,0 194.5,0 H 230 v -82 h -27.5 c -7.933,0 -17.091,-11.183 -18.26,-18.74 -2.7,-17.451 0.944,-41.356 -0.198,-59.802 -5.109,-82.486 -81.986,-125.491 -131.014,-181.991 l -2.391,-1.395 -93.151,92.914 c -23.057,25.269 -36.88,57.233 -39.528,91.472 L -82,0 Z" /></g><g
           transform="translate(987,654)"
           id="g36"><path
             id="path38"
             style="fill:#175649;fill-opacity:1;fill-rule:nonzero;stroke:none"
             d="M 0,0 V -82 H -73.5 C -79.27,-82 -91,-93.72 -91,-99.5 V -313 h -82 l -0.041,216.541 C -172.89,-52.434 -124.822,0 -80.5,0 Z" /></g><g
           transform="translate(708,654)"
           id="g40"><path
             id="path42"
             style="fill:#185649;fill-opacity:1;fill-rule:nonzero;stroke:none"
             d="M 0,0 V -211.5 C 0,-218.67 11.111,-231 18.5,-231 H 46 v -82 H 10.5 c -45.202,0 -93.641,54.682 -92.542,99.458 L -82,0 Z" /></g><g
           transform="translate(661.6158,104.7635)"
           id="g44"><path
             id="path46"
             style="fill:#fe5b39;fill-opacity:1;fill-rule:nonzero;stroke:none"
             d="m 0,0 c -1.014,-0.193 -4.078,-3.378 -4.404,-4.465 -6.189,-20.591 46.49,-16.27 39.28,-0.322 C 31.599,2.461 6.874,-2.585 0,0 M 11.152,80.053 C -3.708,78.372 -2.656,49.814 12.839,50.186 29.053,50.575 28.231,81.984 11.152,80.053 m 51.232,17.184 v -21 h -15 C 51.233,67.461 51.026,58.784 47.118,50.003 39.959,33.919 17.485,30.189 1.99,34.009 -3.041,30.879 -2.892,24.238 3.133,22.486 19.726,17.662 57.634,28.818 62.942,3.293 c 9.182,-44.156 -79.658,-51.699 -90.776,-23.774 -4.511,11.329 1.745,20.475 11.218,26.25 -1.981,3.724 -4.832,5.174 -6.482,9.486 -3.496,9.141 -0.401,15.453 5.49,22.515 1.293,1.548 3.878,0.973 3.03,3.921 -0.089,0.31 -3.755,2.518 -5.015,4.073 -15.657,19.306 -5.096,45.55 18.197,51.753 13.159,3.504 18.48,0.322 30.245,-0.316 11.105,-0.602 22.421,0.518 33.535,0.036" /></g><g
           transform="translate(443,108)"
           id="g48"><path
             id="path50"
             style="fill:#fe5b38;fill-opacity:1;fill-rule:nonzero;stroke:none"
             d="m 0,0 h -29 c -0.734,16.61 0.97,34.019 0.041,50.541 -0.197,3.516 -0.845,11.174 -1.812,14.188 C -34.597,76.646 -51.419,69.87 -57,62.5 V 0 h -29 v 94 h 24 l 2.01,-12 c 18.587,18.666 51.55,22.16 58.544,-8.946 C -1.16,71.784 0,66.147 0,65.5 Z" /></g><g
           transform="translate(760,202)"
           id="g52"><path
             id="path54"
             style="fill:#fe5c39;fill-opacity:1;fill-rule:nonzero;stroke:none"
             d="M 0,0 20.99,-65 38.5,0 H 65 L 64.548,-4.047 C 50.005,-32.336 40.382,-99.361 19.044,-120.544 c -9.701,-9.631 -28.958,-13.723 -40.924,-6.879 l 4.765,19.841 c 0.906,1.332 9.266,0.296 11.55,0.646 7.015,1.075 11.828,9.595 11.544,16.342 L -29,0 Z" /></g><g
           transform="translate(520,166)"
           id="g56"><path
             id="path58"
             style="fill:#fe5b39;fill-opacity:1;fill-rule:nonzero;stroke:none"
             d="m 0,0 c 0.374,22.008 -30.012,20.384 -31,0 z m 24,-20 h -55 c 2.458,-13.975 13.9,-19.399 27.394,-17.891 3.932,0.44 14.678,5.676 16.609,4.451 0.961,-0.609 8.348,-15.554 8.065,-16.895 -2.772,-2.039 -5.909,-3.793 -9.087,-5.146 -29.523,-12.559 -64.289,-1.611 -70.708,32.254 -5.97,31.498 12.938,63.23 47.273,61.272 C 19.201,36.297 28.836,6.384 24,-20" /></g><g
           transform="translate(314,166)"
           id="g60"><path
             id="path62"
             style="fill:#fe5b39;fill-opacity:1;fill-rule:nonzero;stroke:none"
             d="m 0,0 c -0.984,22.549 -29.768,20.307 -32,0 z m 24,-20 h -55 c 1.713,-17.494 19.302,-20.332 33.8,-16.3 2.862,0.796 6.754,4.134 9.19,2.855 2.68,-1.408 6.489,-12.979 8.931,-15.927 -0.618,-3.643 -19.019,-9.502 -22.866,-10.183 -37.718,-6.676 -62.077,19.773 -57.95,56.95 3.18,28.642 32.319,48.433 59.884,38.094 C 22.264,27.133 26.873,1.136 24,-20" /></g><path
           id="path64"
           style="fill:#fe5a38;fill-opacity:1;fill-rule:nonzero;stroke:none"
           d="M 729,707 H 605 v 41 h 124 z" /><g
           transform="translate(588,202)"
           id="g66"><path
             id="path68"
             style="fill:#fe5b39;fill-opacity:1;fill-rule:nonzero;stroke:none"
             d="M 0,0 C -0.183,-1.654 0.884,-17.431 2.987,-15.998 9.19,-1.834 25.11,6.123 40.069,0.415 L 34.866,-23.869 C 28.65,-24.479 22.089,-22.803 16.301,-25.801 13.383,-27.311 5,-36.682 5,-39.5 V -94 H -24 V 0 Z" /></g><g
           transform="translate(1518,572)"
           id="g70"><path
             id="path72"
             style="fill:#fefefe;fill-opacity:1;fill-rule:nonzero;stroke:none"
             d="m 0,0 v -149 h -73.5 c -0.604,0 -7.787,3.457 -8.83,4.17 -5.566,3.804 -8.217,9.679 -8.712,16.288 -2.676,35.736 2.013,74.86 0.131,110.953 C -90.917,-10.828 -79.564,0 -73.5,0 Z" /></g><g
           transform="translate(661.6158,104.7635)"
           id="g74"><path
             id="path76"
             style="fill:#fefbfb;fill-opacity:1;fill-rule:nonzero;stroke:none"
             d="m 0,0 c 6.874,-2.585 31.599,2.461 34.876,-4.787 7.21,-15.948 -45.469,-20.269 -39.28,0.322 C -4.078,-3.378 -1.014,-0.193 0,0" /></g><g
           transform="translate(672.7682,184.8161)"
           id="g78"><path
             id="path80"
             style="fill:#fefbfa;fill-opacity:1;fill-rule:nonzero;stroke:none"
             d="M 0,0 C 17.079,1.932 17.901,-29.477 1.686,-29.867 -13.809,-30.238 -14.86,-1.681 0,0" /></g><g
           transform="translate(520,166)"
           id="g82"><path
             id="path84"
             style="fill:#fefcfc;fill-opacity:1;fill-rule:nonzero;stroke:none"
             d="M 0,0 H -31 C -30.012,20.384 0.374,22.008 0,0" /></g><g
           transform="translate(314,166)"
           id="g86"><path
             id="path88"
             style="fill:#fefbfb;fill-opacity:1;fill-rule:nonzero;stroke:none"
             d="m 0,0 h -32 c 2.232,20.307 31.016,22.549 32,0" /></g></g></g></g></svg>